HIERARCHY
ROOT Hips
{
	OFFSET	0.00	0.00	0.00
	CHANNELS 6 Xposition Yposition Zposition Zrotation Xrotation Yrotation
	JOINT LeftUpLeg
	{
		OFFSET	 0.126116	-0.065224	 0.014019
		CHANNELS 3 Zrotation Xrotation Yrotation
		JOINT LeftLeg
		{
			OFFSET	 0.000000	 0.569914	 0.000000
			CHANNELS 3 Zrotation Xrotation Yrotation
			JOINT LeftFoot
			{
				OFFSET	 0.000000	 0.544423	 0.000000
				CHANNELS 3 Zrotation Xrotation Yrotation
				JOINT LeftToeBase
				{
					OFFSET	 0.000000	 0.207117	 0.000000
					CHANNELS 3 Zrotation Xrotation Yrotation
					End Site
					{
						OFFSET	 0.000000	 0.207117	 0.000000
					}
				}
			}
		}
	}
	JOINT RightUpLeg
	{
		OFFSET	-0.124023	-0.065224	 0.008373
		CHANNELS 3 Zrotation Xrotation Yrotation
		JOINT RightLeg
		{
			OFFSET	 0.000000	 0.570047	 0.000000
			CHANNELS 3 Zrotation Xrotation Yrotation
			JOINT RightFoot
			{
				OFFSET	 0.000000	 0.544354	 0.000000
				CHANNELS 3 Zrotation Xrotation Yrotation
				JOINT RightToeBase
				{
					OFFSET	 0.000000	 0.207540	 0.000000
					CHANNELS 3 Zrotation Xrotation Yrotation
					End Site
					{
						OFFSET	 0.000000	 0.207540	 0.000000
					}
				}
			}
		}
	}
	JOINT Spine
	{
		OFFSET	 0.000184	 0.117403	 0.007763
		CHANNELS 3 Zrotation Xrotation Yrotation
		JOINT Spine1
		{
			OFFSET	 0.000000	 0.137269	 0.000000
			CHANNELS 3 Zrotation Xrotation Yrotation
			JOINT Spine2
			{
				OFFSET	 0.000000	 0.156879	 0.000000
				CHANNELS 3 Zrotation Xrotation Yrotation
				JOINT LeftShoulder
				{
					OFFSET	 0.080501	 0.160143	 0.002496
					CHANNELS 3 Zrotation Xrotation Yrotation
					JOINT LeftArm
					{
						OFFSET	 0.000000	 0.164363	 0.000000
						CHANNELS 3 Zrotation Xrotation Yrotation
						JOINT LeftForeArm
						{
							OFFSET	 0.000000	 0.364576	 0.000000
							CHANNELS 3 Zrotation Xrotation Yrotation
							JOINT LeftHand
							{
								OFFSET	 0.000000	 0.360812	 0.000000
								CHANNELS 3 Zrotation Xrotation Yrotation
								JOINT LeftHandIndex1
								{
									OFFSET	 0.000000	 0.086006	 0.000000
									CHANNELS 3 Zrotation Xrotation Yrotation
									JOINT LeftHandIndex2
									{
										OFFSET	 0.000000	 0.047237	 0.000000
										CHANNELS 3 Zrotation Xrotation Yrotation
										JOINT LeftHandIndex3
										{
											OFFSET	-0.004284	 0.038165	 0.000551
											CHANNELS 3 Zrotation Xrotation Yrotation
											End Site
											{
												OFFSET	-0.004284	 0.038165	 0.000551
											}
										}
									}
								}
							}
						}
					}
				}
				JOINT Neck
				{
					OFFSET	 0.000000	 0.176489	 0.000000
					CHANNELS 3 Zrotation Xrotation Yrotation
					JOINT Head
					{
						OFFSET	 0.000000	 0.077941	 0.001747
						CHANNELS 3 Zrotation Xrotation Yrotation
						End Site
						{
							OFFSET	 0.000000	 0.077941	 0.001747
						}
					}
				}
				JOINT RightShoulder
				{
					OFFSET	-0.080363	 0.159706	-0.000306
					CHANNELS 3 Zrotation Xrotation Yrotation
					JOINT RightArm
					{
						OFFSET	 0.000000	 0.164196	 0.000000
						CHANNELS 3 Zrotation Xrotation Yrotation
						JOINT RightForeArm
						{
							OFFSET	 0.000000	 0.365611	 0.000000
							CHANNELS 3 Zrotation Xrotation Yrotation
							JOINT RightHand
							{
								OFFSET	 0.000000	 0.360648	 0.000000
								CHANNELS 3 Zrotation Xrotation Yrotation
								JOINT RightHandIndex1
								{
									OFFSET	 0.000000	 0.069977	 0.000000
									CHANNELS 3 Zrotation Xrotation Yrotation
									JOINT RightHandIndex2
									{
										OFFSET	 0.000000	 0.052305	 0.000000
										CHANNELS 3 Zrotation Xrotation Yrotation
										JOINT RightHandIndex3
										{
											OFFSET	 0.009002	 0.042196	 0.000782
											CHANNELS 3 Zrotation Xrotation Yrotation
											End Site
											{
												OFFSET	 0.009002	 0.042196	 0.000782
											}
										}
									}
								}
							}
						}
					}
				}
			}
		}
	}
}
MOTION
Frames:    9
Frame Time: 0.03333334
-0.047873	 1.234782	-1.246484	-2.399855	 1.315248	-174.272700	 172.376900	 8.428720	-5.508544	 4.375736	-29.925730	 6.103297	 8.633308	 79.681040	-0.966498	 1.512287	 31.240310	-2.811662	 174.282900	 28.169860	 8.630672	-5.738224	-53.054760	 6.355266	 7.575070	 69.869900	-5.611255	-1.668530	 33.137300	 2.886185	-1.470145	 8.962653	-11.977770	 4.535404	 2.436404	-5.479980	-4.655546	-2.264527	 13.214960	-121.358900	 7.423544	 94.035510	 17.982560	 44.899330	-2.504154	 18.266490	-0.929207	 0.065567	-17.407640	-36.104740	-30.478620	 4.624177	 18.856530	-1.654968	-5.863953	 21.470840	 2.373669	 5.331528	 4.340008	-0.169039	-0.168371	-5.009586	-0.144698	-2.157079	-2.467292	 0.366708	 118.423900	-0.013282	-90.826370	-4.967950	 52.232340	-1.550881	-4.970646	-0.195310	 0.050124	-16.934560	-5.944291	-45.032340	-2.438165	 25.992480	 1.336381	 15.855080	 44.981340	-11.843920	-8.529009	 23.990480	-1.227679
-0.047859	 1.234998	-1.248362	-2.400954	 1.274955	-174.233500	 172.378000	 8.403096	-5.511306	 4.401342	-29.979540	 6.176455	 8.853408	 79.687030	-1.188717	 1.514884	 31.272630	-2.812884	 174.187800	 28.422300	 8.784163	-5.751678	-53.065090	 6.372988	 7.973231	 70.228130	-5.896746	-1.669663	 33.150850	 2.886751	-1.462708	 8.836832	-11.989740	 4.538659	 2.723850	-5.509059	-4.645055	-2.688491	 13.194020	-121.358000	 7.455880	 94.051560	 17.306820	 44.891790	-1.925933	 19.077390	-0.968961	 0.079002	-17.561390	-36.802490	-30.615270	 4.628354	 18.870240	-1.657194	-5.863915	 21.482880	 2.374997	 5.332045	 4.352118	-0.168819	-0.168963	-5.012337	-0.141978	-2.148635	-2.531694	 0.357905	 118.419400	-0.032361	-90.817390	-4.468819	 52.271160	-1.890404	-4.974107	-0.195495	 0.050091	-17.442100	-6.099291	-45.050330	-2.422966	 25.879820	 1.328215	 15.826390	 44.871440	-11.799880	-8.529453	 23.877390	-1.220133
-0.047820	 1.235172	-1.251575	-2.406453	 1.210258	-174.172000	 172.377700	 8.344168	-5.512020	 4.440125	-30.054520	 6.291144	 9.225959	 79.731300	-1.568681	 1.518988	 31.323660	-2.814817	 174.029100	 28.855510	 9.026550	-5.772439	-53.073650	 6.401536	 8.617281	 70.778490	-6.366041	-1.671454	 33.172250	 2.887648	-1.452191	 8.669015	-11.996260	 4.533091	 3.085512	-5.538496	-4.622494	-3.222271	 13.136760	-121.356700	 7.506978	 94.076950	 16.489210	 44.840810	-1.202725	 20.176640	-1.022538	 0.098058	-17.793460	-37.812980	-30.745490	 4.634953	 18.891880	-1.660714	-5.863857	 21.501890	 2.377096	 5.332861	 4.371244	-0.168471	-0.169898	-5.016680	-0.137681	-2.134815	-2.614665	 0.339139	 118.412300	-0.062491	-90.803250	-3.760571	 52.303630	-2.364007	-4.980997	-0.195703	 0.050063	-18.098160	-6.363895	-45.042060	-2.399027	 25.701870	 1.315401	 15.781430	 44.697810	-11.730630	-8.530120	 23.698750	-1.208230
-0.047731	 1.235209	-1.257311	-2.420115	 1.105768	-174.075300	 172.376600	 8.207979	-5.369497	 4.418382	-30.166110	 6.312143	 9.871961	 79.857390	-2.234756	 1.525534	 31.404940	-2.817907	 173.758200	 29.622610	 9.415776	-5.802690	-53.059750	 6.449750	 9.672646	 71.582330	-7.153660	-1.674308	 33.206340	 2.889077	-1.437303	 8.442535	-11.991830	 4.511675	 3.547349	-5.565339	-4.579632	-3.904908	 13.015160	-121.354600	 7.588325	 94.117350	 15.533600	 44.696670	-0.318923	 21.708590	-1.096553	 0.126399	-18.170560	-39.292030	-30.843250	 4.645463	 18.926350	-1.666324	-5.863767	 21.532170	 2.380439	 5.334162	 4.401701	-0.167918	-0.171386	-5.023597	-0.130838	-2.112224	-2.723634	 0.303159	 118.401000	-0.110475	-90.780750	-2.705423	 52.310570	-3.062699	-4.991158	-0.196103	 0.050037	-18.982400	-6.803742	-44.981830	-2.361064	 25.418450	 1.295201	 15.710720	 44.421210	-11.621180	-8.531098	 23.414250	-1.189311
-0.047621	 1.235066	-1.263517	-2.436308	 1.004250	-173.982400	 172.377800	 8.030735	-5.296792	 4.433118	-30.248850	 6.408735	 10.544180	 80.024390	-2.933927	 1.531842	 31.483140	-2.820893	 173.479200	 30.435300	 9.796543	-5.826103	-53.002530	 6.501344	 10.706000	 72.256430	-7.942272	-1.677055	 33.239140	 2.890455	-1.424372	 8.249281	-11.979380	 4.483817	 3.925891	-5.580226	-4.534284	-4.459676	 12.878530	-121.352700	 7.666575	 94.156200	 14.875070	 44.504960	 0.326599	 23.038480	-1.160147	 0.152552	-18.548410	-40.616550	-30.863550	 4.655582	 18.959510	-1.671730	-5.863680	 21.561310	 2.383655	 5.335413	 4.431003	-0.167387	-0.172816	-5.030252	-0.124255	-2.090126	-2.813977	 0.264559	 118.390200	-0.156634	-90.759090	-1.707989	 52.279320	-3.723202	-5.001619	-0.196497	 0.049934	-19.748760	-7.232471	-44.891780	-2.324723	 25.145710	 1.276005	 15.643690	 44.154960	-11.516790	-8.531942	 23.140500	-1.171149
-0.047502	 1.234819	-1.269800	-2.452919	 0.909652	-173.897300	 172.381900	 7.829330	-5.227721	 4.443604	-30.307650	 6.496367	 11.213100	 80.208530	-3.633762	 1.537671	 31.555290	-2.823659	 173.207100	 31.236740	 10.054340	-5.707956	-52.909500	 6.721360	 11.661610	 72.786600	-8.684806	-1.679592	 33.269400	 2.891728	-1.413534	 8.083554	-11.963880	 4.454291	 4.243587	-5.588850	-4.490198	-4.918384	 12.741380	-121.350900	 7.738788	 94.192080	 14.440690	 44.290760	 0.785018	 24.175610	-1.214025	 0.176182	-18.905950	-41.774160	-30.839650	 4.664925	 18.990100	-1.676724	-5.863602	 21.588180	 2.386624	 5.336567	 4.458040	-0.166897	-0.174136	-5.036393	-0.118181	-2.069541	-2.889565	 0.226708	 118.380200	-0.199228	-90.739140	-0.782830	 52.223030	-4.339028	-5.011243	-0.196906	 0.049950	-20.420770	-7.626811	-44.789280	-2.291349	 24.894040	 1.258499	 15.582700	 43.909190	-11.421260	-8.532634	 22.887880	-1.154427
-0.047351	 1.234439	-1.277391	-2.472849	 0.803861	-173.802700	 172.390200	 7.563053	-5.148886	 4.451491	-30.351860	 6.592294	 12.015460	 80.440320	-4.476576	 1.544185	 31.635780	-2.826759	 172.888700	 32.172950	 10.430300	-5.670321	-52.727560	 6.844968	 12.711570	 73.273240	-9.512016	-1.682423	 33.303150	 2.893150	-1.402181	 7.910623	-11.943760	 4.418590	 4.572188	-5.594633	-4.439366	-5.387861	 12.578950	-121.349000	 7.819361	 94.232090	 14.124640	 44.015900	 1.163098	 25.352080	-1.269302	 0.201595	-19.303840	-43.005070	-30.774980	 4.675352	 19.024230	-1.682303	-5.863516	 21.618180	 2.389936	 5.337854	 4.488207	-0.166352	-0.175607	-5.043244	-0.111404	-2.046417	-2.967744	 0.182557	 118.369100	-0.246771	-90.716850	 0.264869	 52.131980	-5.041002	-5.023094	-0.197399	 0.049896	-21.148490	-8.062206	-44.656390	-2.254288	 24.613190	 1.239195	 15.515600	 43.634860	-11.315560	-8.533312	 22.606000	-1.135807
-0.047120	 1.233775	-1.288577	-2.501591	 0.659219	-173.674700	 172.408300	 7.135759	-5.039388	 4.455006	-30.371570	 6.718938	 13.205500	 80.787660	-5.730340	 1.553040	 31.745000	-2.830985	 172.434600	 33.485350	 10.951930	-5.590924	-52.338780	 7.039785	 14.073400	 73.758560	-10.598130	-1.686269	 33.348960	 2.895085	-1.388089	 7.688391	-11.913150	 4.366858	 4.990730	-5.598374	-4.368330	-5.974729	 12.346190	-121.346500	 7.928704	 94.286420	 13.948460	 43.590960	 1.477197	 26.794660	-1.336336	 0.234431	-19.820960	-44.587170	-30.633670	 4.689508	 19.070550	-1.689885	-5.863405	 21.658870	 2.394432	 5.339601	 4.529135	-0.165612	-0.177602	-5.052541	-0.102210	-2.014849	-3.066247	 0.120115	 118.354000	-0.311276	-90.686650	 1.714756	 51.964070	-6.020543	-5.038533	-0.198005	 0.049816	-22.116240	-8.642498	-44.448640	-2.204297	 24.232080	 1.213390	 15.426160	 43.262490	-11.173590	-8.534070	 22.223510	-1.110608
-0.046849	 1.232999	-1.300525	-2.534305	 0.513192	-173.547000	 172.432400	 6.640119	-4.928884	 4.447886	-30.331700	 6.839056	 14.486390	 81.150960	-7.082732	 1.561822	 31.853070	-2.835191	 171.962800	 34.794140	 11.482080	-5.475534	-51.761130	 7.267162	 15.302490	 74.046190	-11.585650	-1.690078	 33.394280	 2.897003	-1.378455	 7.477600	-11.880690	 4.309843	 5.382045	-5.599461	-4.294940	-6.513206	 12.104260	-121.344100	 8.036872	 94.340170	 14.034810	 43.117610	 1.585313	 28.034110	-1.393209	 0.263978	-20.275730	-46.065930	-30.440020	 4.703526	 19.116370	-1.697402	-5.863296	 21.699130	 2.398881	 5.341328	 4.569632	-0.164882	-0.179574	-5.061740	-0.093113	-1.983440	-3.157321	 0.055984	 118.339100	-0.375079	-90.656810	 3.179821	 51.753500	-7.018581	-5.054790	-0.198572	 0.049774	-23.059010	-9.203563	-44.215150	-2.155157	 23.854920	 1.188287	 15.339420	 42.893830	-11.034730	-8.534640	 21.845000	-1.085744
